<?xml version="1.0" encoding="utf-8"?>
<!-- Generator: Adobe Illustrator 23.1.0, SVG Export Plug-In . SVG Version: 6.00 Build 0)  -->
<svg version="1.1" xmlns="http://www.w3.org/2000/svg" xmlns:xlink="http://www.w3.org/1999/xlink" x="0px" y="0px"
	 viewBox="0 0 960 1080" style="enable-background:new 0 0 960 1080;" xml:space="preserve">
<style type="text/css">
	.st0{fill:#F3E7D9;}
	.st1{fill:#33A86D;}
	.st2{fill:#288453;}
	.st3{fill:#273252;}
	.st4{fill:#3E4C6F;}
	.st5{fill:#48598B;}
	.st6{fill:#BB83C3;}
	.st7{fill:#856792;}
	.st8{fill:#665070;}
	.st9{fill:none;stroke:#665070;stroke-width:2;stroke-miterlimit:10;}
	.st10{fill:none;stroke:#F3E7D9;stroke-linecap:round;stroke-linejoin:round;stroke-miterlimit:10;}
	.st11{fill:#4B3355;}
	.st12{fill:#C94039;}
	.st13{fill:#CE9436;}
	.st14{fill:#F7BC4B;}
	.st15{fill:#FEED7F;}
	.st16{fill:#34283A;}
	.st17{fill:#992C29;}
	.st18{fill:#EE5D4F;}
	.st19{fill:#FFFCF3;}
	.st20{fill:none;stroke:#F3E7D9;stroke-miterlimit:10;}
	.st21{fill:none;stroke:#856792;stroke-miterlimit:10;}
	.st22{fill:#D77D5B;}
	.st23{font-family:'FuturaBT-Heavy';}
	.st24{font-size:14.9271px;}
	.st25{fill:#FFACFF;}
	.st26{fill:none;stroke:#FFFCF3;stroke-miterlimit:10;}
	.st27{font-size:15.9809px;}
	.st28{font-size:16.4995px;}
	.st29{fill:none;stroke:#FFFCF3;stroke-linecap:round;stroke-linejoin:round;stroke-miterlimit:10;}
	.st30{font-size:19.3315px;}
	.st31{font-size:17.5122px;}
	.st32{fill:#CC6D3D;}
	.st33{fill:#F5894E;}
	.st34{fill:#1D2538;}
	.st35{fill:#121721;}
	.st36{fill:none;stroke:#273252;stroke-width:0.75;stroke-miterlimit:10;}
</style>
<g id="clouds">
	<path class="st0" d="M602,172.48c0,0-12.39-48.48-44.98-58.75c-32.58-10.26-86.25,8.11-86.25,8.11s-38.32-63.03-114.43-41.51
		s-122.68,95.93-119.87,145.31s26.15,55.81,26.15,55.81s-91.77-25.61-92.91,56.81c-0.29,20.63,44.75,28.59,44.75,28.59
		s-7.55,5.81-21.03,16.74c-13.47,10.93-55.98,50.73-7.73,19.28s48.26-31.45,48.26-31.45s-38.79,32.13-10.94,19.84
		C250.89,378.97,568.96,190.74,602,172.48z"/>
	<path class="st0" d="M859.96,299.65c0,0-30.07-22.15-50.64-14.24c-20.57,7.91-17.41,30.07-17.41,30.07s7.91-33.23-47.47-15.82
		c-55.38,17.41-153.49,85.45-121.85,107.6c31.65,22.15,158.24-53.8,158.24-53.8s-53.8,41.14-6.33,17.41s148.75-94.95,137.67-94.95
		C901.1,275.91,859.96,299.65,859.96,299.65z"/>
</g>
<g id="stone_wall">
	<g>
		<path class="st1" d="M184.67,940.53c-18.21,3.17,24.12,8.83,24.12,8.83S73.91,978.74,207,993.21
			c170.32,18.52,323.26,0.6,371.5-13.53c48.24-14.13-92.46-27.38-92.46-27.38s279.78-24.59,161.87-26.02
			C532.45,924.88,266.55,926.29,184.67,940.53z"/>
		<path class="st1" d="M389.98,873.01c0,0-154.55,16.35-108.66,33.76c9.22,3.5,65.93-1.05,65.93-1.05s-90.87,11.13-35.21,19.38
			c183.96,27.3,529.51-3.24,577.19-13.05c80.7-16.62-147.96-45.89-293.54-42.73C450.11,872.48,389.98,873.01,389.98,873.01z"/>
		<path class="st2" d="M316.4,888.31l97.32,18.99c0,0-90.59,0.4-43.52,23.74c0,0-96.13,13.45-96.13,20.18
			c0,25.67,168.92,20.97,201.36,16.22s-23.74-25.32-23.74-25.32s120.26-11.47,186.73-26.9s16.62-19.78,16.62-19.78
			s104.61-9.75,45.1-16.62C640.62,871.95,417.27,882.37,316.4,888.31z"/>
		<path class="st3" d="M771.46,893.63c41.76,14.11,118.56-1.35,118.56-1.35c26.16-18.5-5.41-134.78-13.31-172.47
			s-26.93-38.48-39.58-37.96c0,0-30.02-74.78-56.05-53.11S740.57,874.32,771.46,893.63z"/>
		<path class="st4" d="M878.15,894.64l11.87-2.36c26.16-18.5-5.41-134.78-13.31-172.47s-26.93-38.48-39.58-37.96
			c0,0-16.52-41.16-35.68-53.56c-6.66-4.31-2.42,28.98,2.33,82.78c0.56,6.29,77.54,93.36,77.54,119.47
			c-38.77-38.77-33.98,49.15-33.23,52.22C853.43,904.75,878.15,894.64,878.15,894.64z"/>
		<path class="st3" d="M399.47,756.97c0,0-22.15-75.96-83.87-66.46s-85.45,120.26-68.04,159.82
			c17.41,39.56,109.19,18.99,132.92,22.15S407.38,769.63,399.47,756.97z"/>
		<path class="st4" d="M399.47,756.97c0,0-22.15-75.96-83.87-66.46c-37.28,5.73-60.7,48.42-69.57,90.04c0,0,28.42-15.67,47.41,14.4
			l30.07,9.49c0,0,40.47,65.84,56.97,68.04C404.22,875.65,407.38,769.63,399.47,756.97z"/>
		<path class="st4" d="M230.46,829.76c0,0-11.72-56.97-43.05-60.13c-31.33-3.16-53.01,23.74-55.53,49.05c0,0-17.25,6.33-20.25,36.4
			c-1.24,12.42-1.48,20.25-1.34,25.16c0.14,4.78,3.44,8.88,8.09,10.03c9.49,2.34,49.19,5.95,76.97,5.95
			C236.48,896.22,221.76,885.14,230.46,829.76z"/>
		<path class="st5" d="M230.46,829.76c0,0-11.72-56.97-43.05-60.13c-31.33-3.16-18.02,40.35-20.55,65.67c0,0-23.9-20.57-26.9,9.49
			c-1.24,12.42,23.59,35.44,23.74,40.35c0.14,4.78-49.96,3.98-45.32,5.13c9.49,2.34,49.19,5.95,76.97,5.95
			C236.48,896.22,221.76,885.14,230.46,829.76z"/>
		<g>
			<path class="st6" d="M710.81,125.58c9.49,4.35,27.3,25.32,30.46,44.31s64.88,704.18,64.88,704.18l-49.05,4.75l-52.22-728.31
				C704.88,150.51,701.32,121.23,710.81,125.58z"/>
			<path class="st7" d="M345.67,880.4l75.4-731.47c0.32-3.16,2.97-5.56,6.15-5.56l276.05-19.7c9.57-0.68,17.82,6.64,18.28,16.22
				l35.56,738.93C757.1,878.81,348.04,882.77,345.67,880.4z"/>
			<path class="st8" d="M345.67,880.4l35.76-346.94c0,0,38.61,115.91,54.44,163.38s54.59,152.7,54.59,152.7l266.64,29.27
				C757.1,878.81,348.04,882.77,345.67,880.4z"/>
		</g>
		<g>
			<path class="st5" d="M177.93,900.97c-11.98-0.61-19.54-13.07-14.64-24.01c8.92-19.92,17.64-55.99,51.04-69.35
				c55.38-22.15,128.18,34.81,148.75,58.55c20.57,23.74-6.33,31.65-22.15,33.23C328.6,900.62,226.5,903.45,177.93,900.97z"/>
			<g>
				<path class="st4" d="M215.91,816.31c0,0-15.82,10.29-2.37,7.12C226.99,820.26,225.41,816.31,215.91,816.31z"/>
				<path class="st4" d="M219.08,862.2c-0.69,2.41-13.45-3.96-18.99-8.7c-5.54-4.75,12.66-19.78,16.62-17.41
					C220.66,838.46,220.66,856.66,219.08,862.2z"/>
			</g>
			<path class="st4" d="M177.93,900.97c-11.98-0.61-19.54-13.07-14.64-24.01c8.92-19.92,17.64-55.99,51.04-69.35
				c0,0-45.1,41.14-24.53,64.88s166.95,25.32,151.12,26.9C328.6,900.62,226.5,903.45,177.93,900.97z"/>
			<path class="st4" d="M229.61,825.32c0,0-15.93,8.39-1.45,8.39C242.64,833.71,249.88,824.48,229.61,825.32z"/>
			<path class="st4" d="M204.84,825.8c0,0,0,5.54,8.7,3.96C222.24,828.18,211.96,825.01,204.84,825.8z"/>
		</g>
		<line class="st9" x1="700.13" y1="396.18" x2="708.84" y2="408.84"/>
		<line class="st9" x1="698.55" y1="408.84" x2="706.46" y2="427.03"/>
		<g>
			<line class="st9" x1="685.1" y1="149.32" x2="694.59" y2="164.35"/>
			<line class="st9" x1="689.05" y1="169.1" x2="691.43" y2="177.8"/>
			<line class="st9" x1="695.38" y1="154.07" x2="703.3" y2="170.68"/>
			<line class="st9" x1="695.38" y1="135.87" x2="706.46" y2="150.11"/>
		</g>
		<g>
			<line class="st9" x1="597.22" y1="588.82" x2="590.94" y2="603.22"/>
			<line class="st9" x1="599.95" y1="602.89" x2="586.72" y2="640.17"/>
			<line class="st9" x1="608.69" y1="591.05" x2="604.62" y2="607.24"/>
		</g>
		<g>
			<line class="st9" x1="443.73" y1="164.74" x2="437.44" y2="179.13"/>
			<line class="st9" x1="446.46" y1="178.8" x2="433.22" y2="216.08"/>
			<line class="st9" x1="455.2" y1="166.96" x2="451.13" y2="183.15"/>
		</g>
		<g>
			<line class="st9" x1="570.37" y1="760.13" x2="594.9" y2="813.14"/>
			<line class="st9" x1="596.48" y1="799.69" x2="609.14" y2="814.73"/>
			<line class="st9" x1="612.31" y1="791.78" x2="628.92" y2="818.68"/>
		</g>
		<line class="st9" x1="413.71" y1="415.16" x2="399.47" y2="468.97"/>
		<line class="st9" x1="429.54" y1="400.92" x2="423.21" y2="424.66"/>
		<line class="st9" x1="437.45" y1="419.91" x2="431.12" y2="443.65"/>
		<line class="st9" x1="442.99" y1="415.16" x2="441.41" y2="434.15"/>
		<path class="st6" d="M741.27,494.29c0,0-20.57,21.32-20.57,25.69c0,4.37,21.36,24.15,21.36,24.15L741.27,494.29z"/>
		<path class="st6" d="M727.03,217.36l-11.47,13.15c-2.87,3.29-2.39,3.54,0.77,5.84l12.81,14.24L727.03,217.36z"/>
		<path class="st8" d="M386.55,487.16l11.5,14.27c1.87,2.32,0.92,5.79-1.88,6.84l-12.36,4.61L386.55,487.16z"/>
		<g>
			<path class="st8" d="M680.35,315.08c0,0-2.91,33.91,0,49.53C680.35,364.6,685.45,352.7,680.35,315.08z"/>
			<path class="st8" d="M726.24,332.88c0.43,1.6-15.84,0.07-29.13,1.66c-9.33,1.12-17.2,3.62-16.75,0
				C680.35,334.54,702.57,332.97,726.24,332.88z"/>
			<path class="st8" d="M701.48,364.69c-2.55,0.58-28.41,1.21-36.42,2.97c-8.01,1.75-11.21-0.36-11.21-0.36s18.86-3.74,31.24-4.61
				C697.47,361.81,704.03,364.12,701.48,364.69z"/>
		</g>
		<g>
			<path class="st8" d="M436.25,263.34c0,0,37.94-3.44,48.86-4.16C485.11,259.18,459.34,258.96,436.25,263.34z"/>
			<path class="st8" d="M454.06,262.21c0,0,1.9-11.42,2.38-24.28s0-12.66,0-12.66S450.73,253.64,454.06,262.21z"/>
			<path class="st8" d="M437.45,252.97l-3.16,36.4C434.29,289.36,433.49,271.16,437.45,252.97z"/>
			<path class="st8" d="M409.76,290.95c0,0,40.62-1.05,46.15-1.85C461.45,288.31,436.66,295.69,409.76,290.95z"/>
			<path class="st8" d="M447.47,293.32c-2.11,3.16-3.69,23.74-2.11,43.52C446.95,356.62,449.58,290.15,447.47,293.32z"/>
		</g>
		<path class="st8" d="M699.6,801.8c1.45,4.4-5.27,5.29-6.59,0.01C691.69,796.53,698.15,797.4,699.6,801.8z"/>
		<path class="st8" d="M715.43,800.22c0.59,6.11-9.29,7.46-12.49-5.63C700.01,782.6,714.84,794.11,715.43,800.22z"/>
		<path class="st8" d="M482.64,782.22c-1.48,0.03-2.46-1.52-1.8-2.84l2.81-5.62c0.59-1.19,2.22-1.36,3.05-0.32l3.41,5.77
			c0.74,1.26-0.14,2.86-1.61,2.89L482.64,782.22z"/>
		<path class="st8" d="M395.98,520.52c-1.48,0.03-2.46-1.52-1.8-2.84l2.81-5.62c0.59-1.19,2.22-1.36,3.05-0.32l3.41,5.77
			c0.74,1.26-0.14,2.86-1.61,2.89L395.98,520.52z"/>
		<path class="st7" d="M740.15,336.96c-1.48,0.03-2.46-1.52-1.8-2.84l2.81-5.62c0.59-1.19,2.22-1.36,3.05-0.32l3.41,5.77
			c0.74,1.26-0.14,2.86-1.61,2.89L740.15,336.96z"/>
		<g>
			<path class="st8" d="M660.21,856.51c-5.26-0.44-13.05-11.63-2.31-12.41C667.75,843.38,665.48,856.95,660.21,856.51z"/>
			<path class="st8" d="M647.71,858.31c-3.28-1.54-4.38-6.49,3.54-3.75C658.51,857.07,650.99,859.85,647.71,858.31z"/>
			<path class="st8" d="M640.92,839.76c0.78-0.86,2.19-0.58,2.58,0.51l1.68,4.62c0.36,0.98-0.42,1.99-1.46,1.91l-5.11-1.17
				c-1.12-0.25-1.54-1.62-0.78-2.47L640.92,839.76z"/>
		</g>
		<path class="st8" d="M510.24,750.64c0,0,0,74.37,4.75,113.93C514.99,864.57,521.32,821.85,510.24,750.64z"/>
		<path class="st8" d="M511.82,807.6c4.75,0,25.32-9.49,39.56,0H511.82z"/>
		<path class="st7" d="M500.75,833.98c0,0-23.21-5.8-44.31-2.11C435.34,835.56,492.31,833.98,500.75,833.98z"/>
		<path class="st7" d="M453.04,806.47c0,0,1.89,35.85,1.86,46.46S448.88,829.13,453.04,806.47z"/>
		<path class="st7" d="M470.68,854.02c0,0-54.86-2.64-69.1,1.05C387.34,858.77,465.93,854.02,470.68,854.02z"/>
		<polygon class="st7" points="743.65,694.46 761.05,715.82 746.81,732.44 		"/>
		<path class="st7" d="M779.52,586.46l-6.06,13.5c-0.84,1.86-0.52,3.93,0.85,5.58l8.11,9.79L779.52,586.46z"/>
		<path class="st7" d="M769.23,662.81c-3.16,5.54,2.11,9.76,2.11,9.76S784.66,673.49,769.23,662.81z"/>
		<path class="st7" d="M777.09,658.7l-21.36-11.48C755.73,647.22,774.18,643.88,777.09,658.7z"/>
		<path class="st6" d="M393.7,537.32l3.47-11.89C397.17,525.43,408.47,534.17,393.7,537.32z"/>
		<path class="st7" d="M749.98,310.73l-11.87,3.56C738.11,314.29,739.3,300.04,749.98,310.73z"/>
		<path class="st1" d="M715,875.72c0,0-4.27-26.14-18.39-28.56s-6.82,17.03,1.14,25.43c0,0-14.37-16.17-19.26-13.82
			s9.66,15.37,9.66,15.37s-24.84-8.87-38.87-3.88c-14.03,4.98,31.28,7.13,31.28,7.13s-25.12,4.86,0.18,5.82
			c25.31,0.97,49.81-2.34,61.7-6.92c11.9-4.58-21.65-0.22-21.65-0.22s6.82-17.03,1.15-19.48C716.27,854.13,715,875.72,715,875.72z"
			/>
	</g>
	<g>
		<path class="st1" d="M549.2,929.46c0,0-1.48-9.61-3.49-27.19C543.71,884.69,559.29,896.83,549.2,929.46z"/>
		<path class="st1" d="M550.87,932.21c0,0-4.21-8.21,5.77-27.37l-0.25,15.84c0,0,10.2-22.32,15.3-27.53
			c5.1-5.21-8.09,26.42-8.09,26.42s8.26-5,11.31-3.22c3.05,1.79,0.37,6.37,0.37,6.37s7.84-10.58,16.31-6.85
			C600.08,919.61,568.61,939.73,550.87,932.21z"/>
		<path class="st1" d="M551.47,931.2c0,0,0.78-11.84-7.48-18.73c-8.27-6.89-0.68,10.26-0.68,10.26s-10.58-7.84-19.27-8.41
			c-8.68-0.57,8.74,11.68,12.69,11.94c3.95,0.26-14.32,0.64-14.32,0.64S520.42,933.11,551.47,931.2z"/>
	</g>
	<path class="st2" d="M733.36,899.38c-17.41,3.16-50.64,9.49,3.16,14.24c53.8,4.75,106.02,1.58,107.6-6.33
		C845.71,899.38,733.36,899.38,733.36,899.38z"/>
	<path class="st8" d="M506.19,158.42l11.18-1.19l-1.93,44.7c0,0,11.93,1.31,14,2.97c1.98,1.58,1.38,8.11-3.36,8.11
		c-4.96,0-11.47,1.58-11.47,1.58l-9.89,139.91l-17.01,28.22l-10.15-29.8l11.34-109.05L506.19,158.42z"/>
	<path class="st8" d="M639.21,177.8c0,0,9.63-2.51,10.68,4.35c1.05,6.86-5.14,7.52-5.14,7.52l-0.4,11.08l8.6-0.5
		c2.31-0.16,4.85,2.93,4.85,5.24l0,0c0,1.89-1.33,3.52-3.18,3.9l-6.71,0.64l1.58,122.84l-16.62,21.76l-11.87-17.41l14.64-137.67
		l4.35-18.2L639.21,177.8z"/>
	<path class="st8" d="M460.4,499.82c0,0,0.79-12.66,9.49-7.91s26.9,23.74,22.15,27.69c-4.75,3.96-9.49,0-9.49,0l-8.7,7.91
		l-1.58,23.74c0,0,2.37-1.58,3.96,3.96c1.58,5.54-1.58,7.12-1.58,7.12s-3.16,19.78,11.87,19.78c0,0,19.78,50.64,13.45,103.65
		c-6.33,53.01-47.47,112.35-47.47,112.35s29.27-140.84,23.74-178.81c-5.54-37.98-20.57-54.59-20.57-54.59l0.79-49.05L460.4,499.82z"
		/>
	<path class="st8" d="M558.51,314.68l7.91-10.29l14.24,14.24c0,0-6.33,11.08-9.49,19.78c-3.16,8.7-2.37,17.8,0.79,37.58l9.49,0.4
		c0,0,5.54-7.52,12.26-3.16s9.1,16.62,0.4,17.41l-16.62,0.79c0,0-5.54,34.81-7.12,64.88c-1.58,30.07,18.99,75.96,22.95,85.45
		s-16.62,40.09-26.11,49.58s-16.62-56.7-16.62-56.7l4.75-169.32L558.51,314.68z"/>
	<path class="st8" d="M652.13,489.01c0,0,2.04-5.77,8.44-5.27c6.86,0.53,5.27,8.44,6.33,21.1c1.05,12.66,0.53,26.37,0.53,26.37
		l23.74-1.05l1.58,20.57l-13.71,0.53l-1.58,255.82l-3.69,3.16l-38.51-39.03L652.13,489.01z"/>
</g>
<g id="swords">
	<path class="st10" d="M452.7,547.77c0,0-11.85,12.87-7.49,21.96"/>
	<path class="st10" d="M550.41,378.06c0,0-11.85,12.87-7.49,21.96"/>
	<path class="st10" d="M505.43,193.03c0,0-17.21,3.16-19.19,13.05"/>
	<g>
		<g>
			<path class="st6" d="M491.25,183.93c0,0,1.68-25.07,2.82-28.29c1.58-2.77,13.4-3.12,14.49-2.67c1.09,0.45-0.69,18.3-0.69,26.41
				C507.87,183.9,491.25,183.93,491.25,183.93z"/>
			<path class="st11" d="M505.25,178.89c0.33-3.36,2.22-24.05,2.37-25.91c0.05-0.59,3.2,0.81,3.02,1.19
				c0.08,1.8-1.58,20.34-2.27,24.28C507.49,183.43,504.92,182.25,505.25,178.89z"/>
			<path class="st6" d="M489.78,203.53c1.27-19.7,1.77-25.47,1.77-25.47c2.62-0.67,13.69-1.55,14.14-1.24l2.74,1.09l-3.07,24.86
				L489.78,203.53z"/>
			<path class="st11" d="M502.93,203.07c0,0,2.45-25.27,2.56-26.51c0.15-1.68,2.95,1.28,2.95,1.28l-3.09,24.92L502.93,203.07z"/>
			<g>
				<polygon class="st12" points="489.99,200.25 490.07,196.46 503.66,193.66 506.57,193.7 506.1,200.48 502.88,199.77 				"/>
				<polygon class="st12" points="490.37,192.18 490.23,194.7 503.67,193.86 506.42,195.23 506.86,191.07 504.02,190.07 				"/>
				<polygon class="st12" points="490.53,189.57 490.36,192.2 504.13,189.77 506.97,190.62 507.16,188.17 504.7,187.21 				"/>
				<polygon class="st12" points="490.61,188.43 490.7,186.98 504.78,184.95 507.46,186.21 507.1,188.83 504.28,187.53 				"/>
			</g>
			<g>
				<polygon class="st13" points="503.66,193.66 506.57,193.7 506.1,200.48 503.17,199.81 				"/>
				<polygon class="st13" points="503.67,193.86 506.42,195.23 506.86,191.07 504,190.07 				"/>
				<polygon class="st13" points="504.09,189.78 506.97,190.62 507.16,188.17 504.45,187.31 				"/>
				<polygon class="st13" points="504.78,184.95 504.42,187.58 507.1,188.83 507.46,186.21 				"/>
			</g>
		</g>
		<g>
			<path class="st11" d="M522.21,205.36l0.02-0.15c0.39-3.07-2.47-5.67-5.84-5.33l-41.88,4.24c-2.53,0.26-4.54,2.1-4.79,4.41v0
				c-0.33,3.01,3.88,4.28,7.19,3.96l40.64-2.91C520,209.33,521.93,207.58,522.21,205.36z"/>
			<path class="st6" d="M522.21,205.36l0.02-0.15c0.39-3.07-2.47-5.67-5.84-5.33l-41.88,4.24c-2.53,0.26-4.54,2.1-4.79,4.41v0
				c-0.33,3.01,4.25-3.59,7.54-3.91l38.17-2.68C517.87,201.7,521.93,207.58,522.21,205.36z"/>
		</g>
		<path class="st14" d="M488.51,208.07l-16.29,151.21l7.25,18.15c0.94,2.36,4.32,2.28,5.14-0.13l7.44-21.82l12.24-148.83l-8.55-0.95
			L488.51,208.07z"/>
		<path class="st15" d="M495.05,356.7l9.23-150.06l-8.55-0.95l-14.76,171.5c-0.19,2.37,3.12,3.13,3.98,0.91L495.05,356.7z"/>
	</g>
	<g>
		<circle class="st16" cx="508.43" cy="210.45" r="4.35"/>
		<circle class="st11" cx="481.91" cy="212.17" r="4.01"/>
	</g>
	<g>
		<g>
			<path class="st17" d="M521.69,391.74l-1.96,2.08c-0.1,1.32,2.47,2.99,4.22,2.88l29.93-0.26l36.89-2.99
				c1.42-0.09,2.52-0.95,2.59-2.02l0.39-4.45c0.09-1.33-2.11-2.68-3.87-2.55l-65.64,5.3C522.85,389.84,521.77,390.69,521.69,391.74z
				"/>
			<g>
				<path class="st18" d="M552.8,339.99l-11.85-14.73c-0.45-0.6-0.46-1.43-0.03-2.07l13.41-17.18c0.61-0.92,1.88-1.12,2.7-0.42
					l13.23,12.79c0.72,0.61,0.82,1.7,0.22,2.47l-12.07,18.77C557.65,340.57,553.5,340.94,552.8,339.99z"/>
				<path class="st17" d="M555.54,340.78l-11.51-15.57c-0.45-0.6-0.46-1.43-0.03-2.07l11.13-17.56c0.61-0.92,3.11,0.09,3.93,0.79
					l13.93,12.79c0.72,0.61,0.82,1.7,0.22,2.47l-13.34,19.03C559.13,341.62,556.25,341.73,555.54,340.78z"/>
				<path class="st12" d="M554.22,339.41l-10.67-14.39c-0.41-0.56-0.43-1.32-0.04-1.91l10.16-16.12c0.56-0.85,2.87,0.1,3.62,0.75
					l12.89,11.84c0.67,0.57,0.76,1.57,0.21,2.28l-12.19,17.47C557.53,340.21,554.87,340.29,554.22,339.41z"/>
				<g>
					<path class="st13" d="M550.53,387.64c0,0,2.91-16.78,3.6-32.01c0.68-15.23-1.56-19.38-1.56-19.38l8.96-0.92l2.54-0.07
						c0,0-2.29,9.69-2.44,20.57s3.58,30.43,3.58,30.43L550.53,387.64z"/>
				</g>
				<path class="st14" d="M554.52,326.86l-2.91-4.36c-0.11-0.15-0.11-0.35-0.01-0.51l3.12-3.54c0.15-0.23,0.47-0.28,0.67-0.11
					l3.45,3.17c0.18,0.15,0.2,0.42,0.05,0.61l-3.66,4.73C555.05,327.09,554.7,327.09,554.52,326.86z"/>
				<g>
					<path class="st14" d="M555.45,305.19c0.17,2.49,0.22,4.98,0.26,7.47c0.05,2.49,0.03,4.98,0,7.47c-0.05,2.49-0.1,4.98-0.23,7.47
						l-0.2,3.73c-0.1,1.24-0.17,2.49-0.3,3.73c-0.09-1.25-0.12-2.49-0.19-3.74l-0.08-3.74c-0.05-2.49-0.02-4.98,0-7.47
						c0.05-2.49,0.1-4.98,0.24-7.47C555.07,310.16,555.21,307.67,555.45,305.19z"/>
				</g>
				<g>
					<path class="st14" d="M540.2,323.98c2.51-0.58,5.03-1.06,7.56-1.52c1.26-0.24,2.53-0.45,3.8-0.66
						c1.27-0.19,2.55-0.29,3.82-0.44c1.28-0.13,2.56-0.23,3.83-0.38c1.27-0.15,2.54-0.33,3.82-0.45l3.83-0.4
						c1.28-0.1,2.56-0.23,3.84-0.29c-1.25,0.29-2.52,0.52-3.78,0.79l-3.79,0.68c-1.26,0.24-2.53,0.42-3.8,0.63
						c-1.27,0.17-2.55,0.29-3.82,0.43c-1.28,0.13-2.56,0.23-3.83,0.38c-1.27,0.17-2.54,0.35-3.81,0.48
						C545.32,323.51,542.77,323.8,540.2,323.98z"/>
				</g>
				<g>
					<path class="st14" d="M548.22,385.69c0,0,2.65-14.84,3.34-30.07s-1.75-18.89-1.75-18.89l5.29-5.34l6.4,3.86
						c0,0-1.36,9.56-1.71,20.44c-0.52,16.35,3.15,29.41,3.15,29.41L548.22,385.69z"/>
				</g>
				<g>
					<path class="st15" d="M548.22,385.69c0,0,2.65-14.84,3.34-30.07s-1.75-18.89-1.75-18.89s6.33,2.47,6.59,48.36L548.22,385.69z"
						/>
				</g>
			</g>
			<path class="st18" d="M519.89,389.61l-0.36,3.04c-0.1,1.32,1.39,2.41,3.15,2.3l66.3-4.18c1.42-0.09,2.52-0.95,2.59-2.02
				l0.39-2.34c0.09-1.33-1.42-2.42-3.19-2.29l-34.36-0.48l-31.97,3.96C521.05,387.71,519.97,388.56,519.89,389.61z"/>
			<path class="st12" d="M519.54,392.66c-0.1,1.32,1.39,2.41,3.15,2.3l66.3-4.18c1.42-0.09,2.52-0.95,2.59-2.02l0.39-2.34
				c0.05-0.68-19.07,0.98-37.67,2.76C536.69,390.87,519.54,392.66,519.54,392.66z"/>
			<g>
				
					<ellipse transform="matrix(0.8625 -0.5061 0.5061 0.8625 -127.4773 318.065)" class="st17" cx="521.47" cy="393.58" rx="9.09" ry="8.2"/>
				
					<ellipse transform="matrix(0.8625 -0.5061 0.5061 0.8625 -126.6996 316.7069)" class="st12" cx="519.36" cy="391.47" rx="9.09" ry="8.2"/>
				
					<ellipse transform="matrix(0.8625 -0.5061 0.5061 0.8625 -126.6996 316.7069)" class="st18" cx="519.36" cy="391.47" rx="4.78" ry="4.32"/>
			</g>
			<g>
				
					<ellipse transform="matrix(0.8625 -0.5061 0.5061 0.8625 -116.106 354.1072)" class="st17" cx="593.47" cy="390.68" rx="9.09" ry="8.2"/>
				
					<ellipse transform="matrix(0.8625 -0.5061 0.5061 0.8625 -115.3283 352.7491)" class="st12" cx="591.36" cy="388.57" rx="9.09" ry="8.2"/>
				
					<ellipse transform="matrix(0.8625 -0.5061 0.5061 0.8625 -115.3283 352.7491)" class="st18" cx="591.36" cy="388.57" rx="4.78" ry="4.32"/>
			</g>
			<path class="st19" d="M542.15,394.86c0,0,6.86,27.74,2.11,86.24c-2.99,36.9-12.37,56.18-16.56,65.62
				c-1.01,2.27-0.95,4.86,0.18,7.07c5.28,10.36,22.36,42.73,25.61,42.78c3.27,0.06,16.88-23.69,24.26-43.21
				c0.88-2.34,2.33-4.75,1.5-7.1c-5.51-15.58-15.73-52.74-16.79-71.48c-2.37-41.95,6.49-82.65,6.49-82.65l-2.01-1.27l-11.62-5.24
				c-0.72-0.32-1.56-0.21-2.17,0.28L542.15,394.86z"/>
			<path class="st0" d="M552.97,575.52c2.47,0.04,10.95-16.87,15.39-23.68c1.91-2.93,2.27-6.59,1-9.85
				c-3.76-9.61-11.38-31.48-12.17-52.45c-1.05-27.96,1.05-98.18,1.05-98.18l-3.7-5.27c-0.27-0.39-0.85-0.36-1.08,0.05l-3.26,5.74
				c0,0-0.92,66.53-0.92,96.07c0,21.58-7.74,43.87-11.92,54.31c-1.52,3.81-0.82,8.15,1.85,11.28L552.97,575.52z"/>
			<line class="st20" x1="553.49" y1="595.25" x2="553.49" y2="559.43"/>
			<line class="st20" x1="528.18" y1="549.67" x2="578.29" y2="548.35"/>
		</g>
		<path class="st11" d="M542.31,397.87c-0.06,1.87-1.55,3.33-3.32,3.25c-1.77-0.07-3.15-1.66-3.06-3.53
			c0.08-1.86,1.57-3.29,3.32-3.21C541,394.46,542.37,396.02,542.31,397.87z"/>
		<path class="st11" d="M579.7,395.66c0.03,1.99-1.47,3.55-3.36,3.47c-1.89-0.08-3.42-1.77-3.43-3.77c-0.01-1.98,1.5-3.51,3.36-3.42
			C578.14,392.03,579.67,393.69,579.7,395.66z"/>
	</g>
	<g>
		<polygon class="st12" points="491.52,181.63 497.46,184.26 504.61,180.84 497.82,178.86 		"/>
		<polygon class="st12" points="492,175.96 497.94,178.59 505.1,175.16 498.31,173.19 		"/>
		<polygon class="st12" points="492.24,170.55 498.18,173.19 505.34,169.76 498.55,167.78 		"/>
		<polygon class="st12" points="492.73,165.01 498.67,167.65 505.82,164.22 499.03,162.24 		"/>
		<polygon class="st12" points="493.09,159.21 499.03,161.85 506.19,158.42 499.4,156.44 		"/>
	</g>
	<g>
		<path class="st11" d="M451.09,561.08l-2.57,20.69c0,0,20.14,23.1,18.51,64.19c-5.45,101.47-28.28,142.37-28.28,142.37l-8.5,14.26
			c-0.96,5.08,10.13-4.35,13.14-8.1c20.62-25.7,61.4-94.82,37.06-206.05c-0.26-1.17-1.13-2.11-2.27-2.47
			c-4.68-1.47-16.6-6.94-14.79-24.29L451.09,561.08z"/>
		<path class="st0" d="M446.64,562.18l-0.52,19.38c-0.03,0.21,0.03,0.41,0.16,0.57c2.04,2.49,17.61,25.28,15.84,63.99
			c-4.09,74.46-22.16,130.24-32.36,155.32c-0.6,1.48,0.88,2.74,1.9,1.61c17.99-20.15,71.43-89.96,44.84-212.89
			c-0.07-0.31-0.59-2.87-2.24-3.56c-1.65-0.69-16.95-5.25-15.3-23.89c0.04-0.43-0.29-0.79-0.77-0.81l-10.48-0.52
			C447.18,561.34,446.7,561.71,446.64,562.18z"/>
		<path class="st19" d="M462.11,646.12c-0.64,11.7-1.63,22.94-2.88,33.66L480,699.5c1.83-10.42,3.08-21.6,3.55-33.53L462.11,646.12z
			"/>
		<path class="st21" d="M454.18,561.98l0.15,17.68c0,0,18.73,7.2,21.1,48.34c2.16,37.46-9.64,129.44-45.68,173.44"/>
		<g>
			<path class="st17" d="M466.65,557.95l-20.43-0.14l3.55-59.84c0.22-3.67,3.33-2.17,5.35,0.29l15.5,11.44
				c0.77,0.93,1.2,2.28,1.17,3.67l-5.85,5.17c-0.59,1.54-3.76,6.55-3.82,8.31l-0.1,22.74c-0.08,2.27,0.67,4.47,2,5.76L466.65,557.95
				z"/>
			<path class="st14" d="M459.49,555.89l-9.61-0.12c-0.47-0.01-0.85-0.41-0.82-0.88l2.7-48.44c0.16-2.63,2.33-1.57,3.75,0.19
				l10.15,8.16c0.79,0.64,0.88,1.81,0.19,2.56c-1.35,1.46-3.57,3.33-3.57,3.33l-3.56,6.03c-0.36,0.93-0.45,23.67-0.45,23.67
				c-0.05,1.08-0.24,2.69,0.37,3.3l1.23,1.34C460.17,555.36,459.94,555.89,459.49,555.89z"/>
			<path class="st18" d="M454.42,554.9l-4.48-0.08l2.45-46.68c0.02-0.48,0.57-0.74,0.95-0.46l10.2,7.65c0.54,0.4,0.6,1.18,0.13,1.67
				l-3,3.1l-4.25,7.06c-0.2,0.91-0.31,1.91-0.33,2.94l-0.48,19.5c-0.01,0.59,0.2,2.2,0.4,3.49
				C456.16,554.05,455.4,554.92,454.42,554.9z"/>
			<path class="st17" d="M466.28,564.17l-20.25-0.16c-0.75-0.07-1.3-1.03-1.23-2.13l0.17-2.76c0.07-1.09,0.72-1.91,1.46-1.84
				l20.06,0.11c0.75,0.07,1.34,1.02,1.31,2.12l-0.08,2.78C467.68,563.4,467.04,564.25,466.28,564.17z"/>
			<path class="st18" d="M460.71,564.17l-16.06-0.16c-0.59-0.07-1.03-1.03-0.98-2.13l0.13-2.76c0.05-1.09,0.57-1.91,1.16-1.84
				l15.91,0.11c0.6,0.07,1.06,1.02,1.04,2.12l-0.06,2.78C461.82,563.4,461.31,564.25,460.71,564.17z"/>
			<path class="st3" d="M448.04,498.51c-0.01-1.03-0.15-2.73-0.15-2.73s-2.41-2.51-4.02-3.96c-1.31-1.18,5.93-2.67,10.61,0.46
				c20.88,13.98,25.07,20.17,24.36,21.63c-0.72,1.47-6.36-0.04-6.36-0.04l-23.97-14.6C448.21,499.08,448.04,498.81,448.04,498.51z"
				/>
			<path class="st4" d="M449.24,499.17c-0.01-0.91-0.14-2.41-0.14-2.41s-2.13-2.22-3.55-3.51c-1.16-1.05,5.23-2.37,9.35,0.41
				c18.33,12.35,21.98,17.79,21.35,19.08c-0.63,1.29-5.57-0.03-5.57-0.03l-21.04-12.87C449.39,499.68,449.24,499.44,449.24,499.17z"
				/>
			<path class="st3" d="M447.74,498.71l-0.27-2.92c0.21-0.69,1.19-1.16,1.98-0.92c1.26,0.37,9.03,5.89,12.67,8.87
				c6.81,5.57,9.29,6.91,10.94,8.51c0.23,0.23,0.09,0.37-0.68,1.05c-0.77,0.69-1.84,2.03-2.36,1.68L447.74,498.71z"/>
		</g>
	</g>
	<g>
		<path class="st16" d="M450.81,500.73c-0.06,1.87-1.55,3.33-3.32,3.25c-1.77-0.07-3.15-1.66-3.06-3.53
			c0.08-1.86,1.57-3.29,3.32-3.21C449.5,497.32,450.87,498.88,450.81,500.73z"/>
		<path class="st16" d="M473.68,516.17c0.03,1.99-1.47,3.55-3.36,3.47c-1.89-0.08-3.42-1.77-3.43-3.77
			c-0.01-1.98,1.5-3.51,3.36-3.42C472.12,512.53,473.65,514.19,473.68,516.17z"/>
	</g>
	<g>
		<g>
			<g>
				<path class="st17" d="M645.09,539.69l0.81-50.9c0.22-2.34,4.27-2.02,7.8-1.92c4.35,0.13,6.09,3.25,6.04,6.62l0.85,48.27
					c-0.04,2.19-2.48,3.41-4.52,3.83l-3.86,0.8C648.53,547.14,644.71,543.54,645.09,539.69z"/>
				<path class="st12" d="M640.8,540.23l2.02-49.12c0.22-2.34,1.83-4.29,4.15-4.34l4.56-0.36c3.29-0.06,4.54,2.53,4.49,5.89
					l-0.01,47.6c-0.04,2.19-1.41,3.92-3.46,4.34l-7.39,0.05C641.51,545.06,640.43,544.09,640.8,540.23z"/>
				<path class="st18" d="M640.8,540.23l2.02-49.12c0.22-2.34,1.83-4.29,4.15-4.34l9.03,53.14c-0.04,2.19-1.41,3.92-3.46,4.34
					l-7.39,0.05C641.51,545.06,640.43,544.09,640.8,540.23z"/>
			</g>
			
				<ellipse transform="matrix(0.7802 -0.6255 0.6255 0.7802 -165.9137 514.3373)" class="st14" cx="648.96" cy="493.27" rx="3.73" ry="3.56"/>
			<g>
				<polygon class="st4" points="642.11,507.47 656.09,505.1 656.09,507.74 641.85,509.58 				"/>
				<polygon class="st4" points="641.91,511.96 656.09,509.58 656.09,516.97 641.85,514.07 				"/>
				<polygon class="st4" points="641.71,518.15 656.09,515.65 656.09,519.34 641.45,521.32 				"/>
				<polygon class="st4" points="641.58,520.13 656.09,524.09 656.09,528.57 641.32,525.54 				"/>
				<polyline class="st3" points="656.09,505.1 660.04,507.34 660.18,509.98 656.09,507.74 				"/>
				<polyline class="st3" points="656.09,509.58 660.18,512.09 660.44,521.58 656.09,519.34 				"/>
				<polygon class="st3" points="656.09,524.09 660.44,525.93 660.31,529.36 656.09,528.57 				"/>
			</g>
		</g>
		<g>
			<path class="st13" d="M665.7,693.1c0-3.76,2.38-6.45,5.56-6.63V548.95l-39.37,2.75l36.6,248.98l2.77-0.2V701.9
				C668.07,700.47,665.7,696.86,665.7,693.1z"/>
			<path class="st0" d="M662.92,692.55c0-3.76,2.37-6.44,5.55-6.63l0.01-137.46l-39.34,2.75l-4.12,200.9l43.45,48.65l0.01-99.41
				C665.29,699.93,662.92,696.32,662.92,692.55z"/>
			<path class="st15" d="M662.92,692.55c0-3.76,2.37-6.44,5.55-6.63l0.01-137.46l-39.34,2.75l-4.1,202.32l43.43,47.23l0.01-99.41
				C665.29,699.93,662.92,696.32,662.92,692.55z"/>
			<polygon class="st19" points="666.09,719.3 666.09,750.96 627.44,685.87 628.64,660.6 			"/>
			<path class="st19" d="M661.15,690.09c0-3.35,2.11-5.74,4.94-5.9l0-38.45l-35.05-81.62l-0.65,31.7l-0.74,35.95l-0.19,9.4"/>
			<path class="st3" d="M630.7,552c8.64-0.58,29.34-2.04,38.57-2.68c1.26-0.09,0.08,2.22-0.99,2.93l-19.03,13.01
				c-0.4,0.27-0.92,0.28-1.32,0.03l-17.86-11.03C629.08,553.64,629.51,552.08,630.7,552z"/>
			<path class="st4" d="M629.39,550.89c8.64-0.58,29.33-2.04,38.56-2.69c1.25-0.09,1.76,1.53,0.7,2.23l-20.71,13.71
				c-0.4,0.27-0.92,0.28-1.32,0.03l-17.85-11.03C627.77,552.53,628.2,550.97,629.39,550.89z"/>
		</g>
		<path class="st3" d="M612.9,544.46l-0.56,9.88c-0.07,1.25,0.95,2.28,2.2,2.23l70.81-2.96c1.13-0.05,2.02-0.98,2.02-2.11v-11.54
			c0-1.22-1.03-2.19-2.25-2.11l-70.26,4.62C613.8,542.54,612.95,543.39,612.9,544.46z"/>
		<path class="st4" d="M611.41,542.97l-0.56,9.88c-0.07,1.25,0.95,2.28,2.2,2.23l70.81-2.96c1.13-0.05,2.02-0.98,2.02-2.11v-11.54
			c0-1.22-1.03-2.19-2.25-2.11l-70.26,4.62C612.32,541.05,611.47,541.91,611.41,542.97z"/>
	</g>
	<path class="st16" d="M681.37,556.17c0.04,2.86-2.12,5.11-4.83,4.99c-2.71-0.12-4.92-2.55-4.93-5.42
		c-0.01-2.85,2.16-5.04,4.84-4.92C679.13,550.94,681.33,553.33,681.37,556.17z"/>
	<path class="st16" d="M627.57,558.28c0.04,2.86-2.12,5.11-4.83,4.99c-2.71-0.12-4.92-2.55-4.93-5.42
		c-0.01-2.85,2.16-5.04,4.84-4.92C625.32,553.05,627.53,555.44,627.57,558.28z"/>
	<g>
		<g>
			<path class="st22" d="M480.96,199.31c-9.61,8.53-23.2,15.73-28.26,18.67c-0.84,0.49-1.42,1.32-1.59,2.27l-1.97,10.84
				c-0.35,1.92,1.04,3.73,2.99,3.89l8.79,0.18c0.71,0.06,1.41-0.11,2.01-0.48c4.71-2.92,19.74-10.86,26.82-19.68
				c0.7-0.87,0.87-2.04,0.51-3.1l-3.98-11.18C485.51,198.48,482.72,197.75,480.96,199.31z"/>
			<path class="st22" d="M480.96,199.31c-9.61,8.53-20.04,35.84-20.04,35.84c0.71,0.06,1.41-0.11,2.01-0.48
				c4.71-2.92,19.74-10.86,26.82-19.68c0.7-0.87,0.87-2.04,0.51-3.1l-3.98-11.18C485.51,198.48,482.72,197.75,480.96,199.31z"/>
			<path class="st10" d="M484.79,205.48c0,0,0.76-2.11,2.68-2.47"/>
			<path class="st10" d="M485.46,206.07c0,0,0.71-1.38,2.63-1.74"/>
			<path class="st10" d="M487.28,202.3c0,0,1.57,1.02,0.75,2.57"/>
		</g>
		<g>
			<text transform="matrix(0.7194 -0.5465 0.5041 0.8636 469.0019 226.319)" class="st19 st23 st24">12</text>
		</g>
		<path class="st10" d="M488.19,204.21c0,0,11.27-0.2,18.59-7.62"/>
		<g>
			<g>
				<path class="st14" d="M455.34,224.04l5.97-4.21c0.62-0.43,1.47-0.29,1.9,0.33l0.94,1.32l-8.18,5.77l-0.95-1.34
					C454.6,225.3,454.74,224.46,455.34,224.04z"/>
				
					<ellipse transform="matrix(0.8169 -0.5768 0.5768 0.8169 -44.5797 305.6683)" class="st14" cx="459.13" cy="223.05" rx="4.98" ry="2.36"/>
				
					<ellipse transform="matrix(0.8169 -0.5768 0.5768 0.8169 -45.1116 306.3837)" class="st19" cx="459.99" cy="224.24" rx="5.01" ry="1.59"/>
			</g>
			<g>
				<path class="st14" d="M456.54,226.81l5.37-3.8c0.77-0.55,1.84-0.36,2.39,0.41l0.73,1.04l-8.18,5.77l-0.73-1.04
					C455.58,228.43,455.77,227.36,456.54,226.81z"/>
				
					<ellipse transform="matrix(0.8169 -0.5768 0.5768 0.8169 -46.1412 306.729)" class="st14" cx="460.02" cy="226.04" rx="4.98" ry="2.36"/>
				
					<ellipse transform="matrix(0.8169 -0.5768 0.5768 0.8169 -46.6731 307.4444)" class="st19" cx="460.88" cy="227.23" rx="5.01" ry="1.59"/>
			</g>
			<g>
				<path class="st14" d="M459.94,227.86l5.68-4.01c0.77-0.55,1.84-0.36,2.39,0.41l0.73,1.04l-8.18,5.77l-0.95-1.34
					C459.19,229.12,459.34,228.28,459.94,227.86z"/>
				
					<ellipse transform="matrix(0.8169 -0.5768 0.5768 0.8169 -45.9405 309.0197)" class="st14" cx="463.73" cy="226.86" rx="4.98" ry="2.36"/>
				
					<ellipse transform="matrix(0.8169 -0.5768 0.5768 0.8169 -46.4724 309.735)" class="st19" cx="464.59" cy="228.06" rx="5.01" ry="1.59"/>
			</g>
		</g>
	</g>
	<g>
		<path class="st10" d="M631.47,184.63c0,0-9.32,12.5-9.6,19.9"/>
		<g>
			<g>
				<path class="st13" d="M635.07,176.76c-4.4,0.27-7.94,3.61-7.83,7.54c0.1,4.02,3.97,7.02,8.55,6.6c4.5-0.4,7.85-3.94,7.56-7.82
					C643.06,179.29,639.39,176.5,635.07,176.76z M635.58,186.85c-2,0.16-3.7-1.14-3.76-2.9c-0.07-1.74,1.48-3.25,3.45-3.38
					c1.95-0.13,3.61,1.13,3.71,2.84C639.08,185.14,637.57,186.69,635.58,186.85z"/>
				<path class="st14" d="M633.77,176.67c-3.57,0.22-6.45,2.93-6.37,6.11c0.08,3.25,3.21,5.67,6.92,5.34
					c3.65-0.32,6.37-3.17,6.15-6.31C640.27,178.73,637.29,176.45,633.77,176.67z M634.17,184.85c-1.62,0.13-2.99-0.92-3.05-2.35
					c-0.05-1.41,1.21-2.63,2.8-2.74c1.59-0.11,2.93,0.92,3.01,2.31C637.01,183.47,635.78,184.72,634.17,184.85z"/>
			</g>
			<path class="st6" d="M638.92,206.59l-5.88,0.54c-0.28,0.03-0.54-0.21-0.54-0.5c-0.05-3.04-0.25-17.27,0.8-17.2
				c1.65-0.11,2.8-0.47,3.81-0.89c0.62-0.25,2.36,0.81,2.35,1.16l-0.16,16.45C639.31,206.39,639.15,206.57,638.92,206.59z"/>
			<path class="st25" d="M636.9,206.45l-6.21,0.57c-0.18,0.02-0.35-0.14-0.34-0.33c0,0,0.58-16.56,0.62-17.12
				c0.04-0.56,0.43-0.53,0.6-0.49c0.54,0.13,1.42,0.3,2.41,0.25c0.98-0.05,2.33-0.49,2.99-0.72c0.19-0.07,0.4,0.09,0.4,0.3
				l-0.21,17.28C637.15,206.32,637.04,206.44,636.9,206.45z"/>
			<path class="st6" d="M652.74,207.24l-37.12,3.86c-0.59,0.08-1.19-0.21-1.54-0.73l0,0c-0.64-0.97-2.06-2.3-0.97-2.5l38.02-5.68
				c0.42-0.08,0.88,0.04,1.24,0.33l0.83,0.65c0.41,0.32,0.66,0.8,0.67,1.31l0.05,1.29C653.96,206.53,653.46,207.15,652.74,207.24z"
				/>
			<g>
				<path class="st13" d="M644.07,330.58l-15.5,19.73l-1.71-0.1l-11.81-21.82l24.73-103.78l2.06-17.51l1.97,1.29l0.89,119.88
					C644.7,329.04,644.48,329.85,644.07,330.58z"/>
				<path class="st0" d="M641.8,328.3l-15.05,21.79l-11.7-21.69l8.29-118.92l18.52-2.37l0.56,118.89
					C642.42,326.75,642.2,327.57,641.8,328.3z"/>
				<polygon class="st19" points="618.79,274.28 620.04,256.36 627.77,258.46 627.17,276.81 				"/>
				<polygon class="st19" points="628.07,279.79 628.73,261.77 641.98,266.02 642.08,284.91 				"/>
			</g>
			<polyline class="st26" points="640.2,328.41 625.19,320.97 615.13,328.5 			"/>
			<line class="st26" x1="625.19" y1="320.97" x2="630.73" y2="209.84"/>
			<path class="st25" d="M650.88,204.88l-36.76,4.31c-0.79,0.09-1.49-0.56-1.49-1.38v-0.03c0-0.66,0.47-1.21,1.11-1.28l36.63-4.28
				c0.76-0.09,1.48,0.56,1.52,1.36l0,0.08C651.91,204.29,651.49,204.81,650.88,204.88z"/>
			<polygon class="st6" points="623.34,209.48 641.86,207.11 630.5,212.59 			"/>
			<polygon class="st13" points="642.95,247.44 640.26,251.38 643.02,253.34 			"/>
			<polygon class="st13" points="642.58,318.02 640.27,322.33 643.21,326.29 			"/>
			<polygon class="st13" points="630.04,346.58 628.64,340.26 633.74,342.43 			"/>
			<path class="st11" d="M622.08,213.35c-0.04,1.85-1.5,3.28-3.28,3.18c-1.77-0.1-3.17-1.7-3.11-3.56c0.06-1.84,1.53-3.24,3.28-3.14
				C620.73,209.94,622.12,211.51,622.08,213.35z"/>
			<path class="st11" d="M650.26,209.55c0.06,1.98-1.43,3.51-3.31,3.39c-1.89-0.11-3.45-1.82-3.48-3.81
				c-0.03-1.97,1.46-3.46,3.32-3.35C648.66,205.9,650.21,207.58,650.26,209.55z"/>
			<polygon class="st19" points="628.26,253.35 630.95,257.33 627.97,261.6 			"/>
		</g>
		<g>
			<g>
				<path class="st22" d="M613.58,203.76c-4.32,13.06-12.86,26.23-15.97,31.67c-0.52,0.9-0.61,1.98-0.26,2.96l4,11.09
					c0.71,1.97,2.96,2.9,4.86,2l8.24-4.55c0.69-0.33,1.25-0.86,1.6-1.53c2.79-5.23,12.27-19.86,14.09-31.84
					c0.18-1.18-0.29-2.36-1.19-3.14l-9.69-8.21C617.34,200.55,614.37,201.36,613.58,203.76z"/>
				<path class="st22" d="M606.2,251.48l8.24-4.55c0.69-0.33,1.25-0.86,1.6-1.53c2.79-5.23,12.27-19.86,14.09-31.84
					c0.18-1.18-0.29-2.36-1.19-3.14l-9.69-8.21C617.34,200.55,604.31,252.38,606.2,251.48z"/>
				<path class="st10" d="M620.44,207.42c0,0-0.43-2.37,1.15-3.73"/>
				<path class="st10" d="M621.38,207.6c0,0-0.08-1.66,1.51-3.02"/>
				<path class="st10" d="M621.03,203.13c0,0,2,0.1,2.08,1.98"/>
			</g>
			<text transform="matrix(0.3481 -0.8337 0.8694 0.4942 617.4228 231.9305)" class="st19 st23 st27">20</text>
			<path class="st10" d="M623.09,204.27c0,0,11.08-13.18,8.86-20.62"/>
			<g>
				<g>
					<path class="st14" d="M602.65,238.66l3.7-6.3c0.38-0.65,1.22-0.87,1.87-0.49l1.4,0.82l-5.07,8.63l-1.42-0.83
						C602.49,240.11,602.28,239.29,602.65,238.66z"/>
					
						<ellipse transform="matrix(0.5062 -0.8624 0.8624 0.5062 95.4046 639.002)" class="st14" cx="605.69" cy="236.19" rx="4.98" ry="2.36"/>
					
						<ellipse transform="matrix(0.5062 -0.8624 0.8624 0.5062 95.4025 640.4659)" class="st19" cx="606.97" cy="236.93" rx="5.01" ry="1.59"/>
				</g>
				<g>
					<path class="st14" d="M604.89,240.69l3.33-5.67c0.48-0.82,1.53-1.09,2.35-0.61l1.1,0.64l-5.07,8.63l-1.1-0.64
						C604.68,242.56,604.41,241.51,604.89,240.69z"/>
					
						<ellipse transform="matrix(0.5062 -0.8624 0.8624 0.5062 94.3818 641.9283)" class="st14" cx="607.74" cy="238.55" rx="4.98" ry="2.36"/>
					
						<ellipse transform="matrix(0.5062 -0.8624 0.8624 0.5062 94.3796 643.3922)" class="st19" cx="609.02" cy="239.28" rx="5.01" ry="1.59"/>
				</g>
				<g>
					<path class="st14" d="M608.42,240.24l3.52-6c0.48-0.82,1.53-1.09,2.35-0.61l1.1,0.64l-5.07,8.63l-1.42-0.83
						C608.26,241.7,608.04,240.88,608.42,240.24z"/>
					
						<ellipse transform="matrix(0.5062 -0.8624 0.8624 0.5062 96.8866 644.7542)" class="st14" cx="611.46" cy="237.77" rx="4.98" ry="2.36"/>
					
						<ellipse transform="matrix(0.5062 -0.8624 0.8624 0.5062 96.8844 646.218)" class="st19" cx="612.74" cy="238.51" rx="5.01" ry="1.59"/>
				</g>
			</g>
		</g>
	</g>
	<g>
		<g>
			<path class="st22" d="M535.8,394c-10.34,9.74-24.03,18.41-29.53,21.82c-0.91,0.56-1.52,1.5-1.68,2.56l-1.82,12.04
				c-0.32,2.14,1.27,4.09,3.43,4.2l9.72-0.08c0.78,0.04,1.55-0.17,2.21-0.6c5.11-3.38,20.37-12.91,27.9-22.9
				c0.74-0.98,0.89-2.29,0.46-3.44l-4.76-12.22C540.81,392.94,537.7,392.21,535.8,394z"/>
			<path class="st22" d="M515.92,434.53c0.78,0.04,1.55-0.17,2.21-0.6c5.11-3.38,20.37-12.91,27.9-22.9
				c0.74-0.98,0.89-2.29,0.46-3.44l-4.76-12.22C540.81,392.94,515.92,434.53,515.92,434.53z"/>
			<path class="st10" d="M540.24,400.7c0,0,0.77-2.36,2.88-2.82"/>
			<path class="st10" d="M541,401.32c0,0,0.74-1.54,2.85-2"/>
			<path class="st10" d="M542.88,397.09c0,0,1.77,1.08,0.91,2.82"/>
		</g>
		<g>
			<text transform="matrix(0.703 -0.5675 0.5293 0.8484 524.5578 422.5062)" class="st19 st23 st28">35</text>
		</g>
		<path class="st29" d="M544.86,397.43c0,0,17.21-10.68,19.58-19.19"/>
		<g>
			<g>
				<path class="st14" d="M509.37,422.05l5.73-4.53c0.59-0.47,1.45-0.37,1.92,0.22l1.01,1.27l-7.85,6.21l-1.02-1.29
					C508.69,423.35,508.79,422.51,509.37,422.05z"/>
				
					<ellipse transform="matrix(0.7841 -0.6206 0.6206 0.7841 -150.4173 409.2911)" class="st14" cx="513.1" cy="420.85" rx="4.98" ry="2.36"/>
				
					<ellipse transform="matrix(0.7841 -0.6206 0.6206 0.7841 -150.9292 410.1126)" class="st19" cx="514.02" cy="422" rx="5.01" ry="1.59"/>
			</g>
			<g>
				<path class="st14" d="M510.72,424.75l5.16-4.08c0.74-0.59,1.82-0.46,2.41,0.28l0.79,1l-7.85,6.21l-0.79-1
					C509.85,426.42,509.97,425.34,510.72,424.75z"/>
				
					<ellipse transform="matrix(0.7841 -0.6206 0.6206 0.7841 -152.0126 410.5779)" class="st14" cx="514.15" cy="423.79" rx="4.98" ry="2.36"/>
				
					<ellipse transform="matrix(0.7841 -0.6206 0.6206 0.7841 -152.5245 411.3994)" class="st19" cx="515.07" cy="424.93" rx="5.01" ry="1.59"/>
			</g>
			<g>
				<path class="st14" d="M514.17,425.61l5.45-4.32c0.74-0.59,1.82-0.46,2.41,0.28l0.79,1l-7.85,6.21l-1.02-1.29
					C513.49,426.91,513.59,426.07,514.17,425.61z"/>
				
					<ellipse transform="matrix(0.7841 -0.6206 0.6206 0.7841 -151.5915 413.0389)" class="st14" cx="517.9" cy="424.41" rx="4.98" ry="2.36"/>
				
					<ellipse transform="matrix(0.7841 -0.6206 0.6206 0.7841 -152.1034 413.8604)" class="st19" cx="518.82" cy="425.56" rx="5.01" ry="1.59"/>
			</g>
		</g>
	</g>
	<g>
		<g>
			<path class="st22" d="M439.12,567.17c-6.95,15.12-19.19,29.67-23.66,35.79c-0.74,1.01-1,2.3-0.7,3.52l3.31,13.87
				c0.59,2.46,3.17,3.88,5.57,3.06l10.52-4.36c0.87-0.3,1.61-0.87,2.13-1.62c4.06-5.91,17.63-22.09,21.42-36.24
				c0.37-1.39-0.04-2.88-1.01-3.94l-10.54-11.18C444.08,563.82,440.4,564.4,439.12,567.17z"/>
			<path class="st22" d="M439.12,567.17l1.17,27.48c0,0-4.53,23.52-4.01,22.77c4.06-5.91,17.63-22.09,21.42-36.24
				c0.37-1.39-0.04-2.88-1.01-3.94l-10.54-11.18C444.08,563.82,440.4,564.4,439.12,567.17z"/>
			<path class="st10" d="M446.88,572.49c0,0-0.2-2.9,1.89-4.33"/>
			<path class="st10" d="M447.98,572.83c0,0,0.13-2,2.22-3.43"/>
			<path class="st10" d="M448.17,567.42c0,0,2.39,0.39,2.23,2.66"/>
		</g>
		<g>
			<text transform="matrix(0.4388 -0.7897 0.8089 0.5879 438.9255 603.7474)" class="st19 st23 st30">50</text>
		</g>
		<path class="st10" d="M448.92,570.24c0,0,12-8.24,14.37-16.75"/>
		<g>
			<g>
				<path class="st14" d="M421.27,607.12l4.54-5.72c0.47-0.59,1.33-0.69,1.92-0.22l1.27,1.01l-6.22,7.84l-1.29-1.02
					C420.91,608.54,420.81,607.69,421.27,607.12z"/>
				
					<ellipse transform="matrix(0.6218 -0.7831 0.7831 0.6218 -313.3036 561.3727)" class="st14" cx="424.63" cy="605.1" rx="4.98" ry="2.36"/>
				
					<ellipse transform="matrix(0.6218 -0.7831 0.7831 0.6218 -313.5732 562.625)" class="st19" cx="425.79" cy="606.01" rx="5.01" ry="1.59"/>
			</g>
			<g>
				<path class="st14" d="M423.2,609.44l4.09-5.15c0.59-0.74,1.67-0.87,2.41-0.28l1,0.79l-6.22,7.84l-1-0.79
					C422.73,611.26,422.61,610.18,423.2,609.44z"/>
				
					<ellipse transform="matrix(0.6218 -0.7831 0.7831 0.6218 -314.714 563.6899)" class="st14" cx="426.32" cy="607.72" rx="4.98" ry="2.36"/>
				
					<ellipse transform="matrix(0.6218 -0.7831 0.7831 0.6218 -314.9836 564.9423)" class="st19" cx="427.48" cy="608.62" rx="5.01" ry="1.59"/>
			</g>
			<g>
				<path class="st14" d="M426.76,609.49l4.32-5.45c0.59-0.74,1.67-0.87,2.41-0.28l1,0.79l-6.22,7.84l-1.29-1.02
					C426.39,610.91,426.3,610.07,426.76,609.49z"/>
				
					<ellipse transform="matrix(0.6218 -0.7831 0.7831 0.6218 -313.0872 566.5662)" class="st14" cx="430.11" cy="607.47" rx="4.98" ry="2.36"/>
				
					<ellipse transform="matrix(0.6218 -0.7831 0.7831 0.6218 -313.3567 567.8185)" class="st19" cx="431.28" cy="608.38" rx="5.01" ry="1.59"/>
			</g>
		</g>
	</g>
	<path class="st10" d="M641.4,531.95c0,0-11.85,12.87-7.49,21.97"/>
	<g>
		<g>
			<path class="st22" d="M627.05,553.13c-4.48,14.39-13.03,29.27-16.33,35.29c-0.55,1-0.63,2.18-0.22,3.24l4.59,12.08
				c0.82,2.15,3.3,3.12,5.36,2.1l8.94-5.15c0.75-0.37,1.35-0.97,1.73-1.71c2.96-5.79,12.5-22.28,14.27-35.44
				c0.17-1.29-0.37-2.58-1.37-3.42l-10.77-8.82C631.12,549.53,627.88,550.48,627.05,553.13z"/>
			<path class="st22" d="M627.05,553.13c0,0,3.69,46.6,4.06,45.85c2.96-5.79,12.5-22.28,14.27-35.44c0.17-1.29-0.37-2.58-1.37-3.42
				l-10.77-8.82C631.12,549.53,627.88,550.48,627.05,553.13z"/>
			<path class="st10" d="M634.64,557c0,0-0.52-2.59,1.19-4.11"/>
			<path class="st10" d="M635.67,557.18c0,0-0.12-1.82,1.59-3.34"/>
			<path class="st10" d="M635.21,552.29c0,0,2.2,0.07,2.31,2.13"/>
		</g>
		<g>
			<text transform="matrix(0.3337 -0.8396 0.8778 0.4791 633.1381 582.8933)" class="st19 st23 st31">70</text>
		</g>
		<g>
			<g>
				<path class="st14" d="M617.78,590.2l3.03-6.65c0.31-0.69,1.12-0.99,1.81-0.68l1.48,0.67l-4.15,9.11l-1.5-0.68
					C617.77,591.67,617.48,590.87,617.78,590.2z"/>
				
					<ellipse transform="matrix(0.4142 -0.9102 0.9102 0.4142 -171.1418 908.9656)" class="st14" cx="620.55" cy="587.43" rx="4.98" ry="2.36"/>
				
					<ellipse transform="matrix(0.4142 -0.9102 0.9102 0.4142 -170.897 910.5412)" class="st19" cx="621.9" cy="588.03" rx="5.01" ry="1.59"/>
			</g>
			<g>
				<path class="st14" d="M620.22,591.99l2.73-5.99c0.39-0.86,1.41-1.24,2.27-0.85l1.16,0.53l-4.15,9.11l-1.16-0.53
					C620.2,593.87,619.82,592.85,620.22,591.99z"/>
				
					<ellipse transform="matrix(0.4142 -0.9102 0.9102 0.4142 -171.7484 912.287)" class="st14" cx="622.83" cy="589.57" rx="4.98" ry="2.36"/>
				
					<ellipse transform="matrix(0.4142 -0.9102 0.9102 0.4142 -171.5037 913.8626)" class="st19" cx="624.18" cy="590.16" rx="5.01" ry="1.59"/>
			</g>
			<g>
				<path class="st14" d="M623.68,591.18l2.88-6.33c0.39-0.86,1.41-1.24,2.27-0.85l1.16,0.53l-4.15,9.11l-1.5-0.68
					C623.67,592.64,623.37,591.85,623.68,591.18z"/>
				
					<ellipse transform="matrix(0.4142 -0.9102 0.9102 0.4142 -168.5763 914.905)" class="st14" cx="626.45" cy="588.41" rx="4.98" ry="2.36"/>
				
					<ellipse transform="matrix(0.4142 -0.9102 0.9102 0.4142 -168.3315 916.4805)" class="st19" cx="627.8" cy="589.01" rx="5.01" ry="1.59"/>
			</g>
		</g>
		<path class="st10" d="M635.85,553.82c0,0,22.35-11.87,24.73-20.37"/>
	</g>
	<polygon class="st19" points="481.36,274.49 488.75,286.2 489.93,274.86 482.55,263.52 	"/>
	<polygon class="st19" points="479.95,287.35 487.69,299.42 488.68,287.35 481.13,276.57 	"/>
</g>
<g id="stone">
	<path class="st5" d="M837.8,902.55c8.14-3.26,16.94-19.78,16.62-26.11c-1.48-28.59-11.21-80.4-37.2-120.03
		c-18.09-27.59-59.03,1.38-65.66,5.31c-10.41,10.51-10.1,11.67-13.45,20.71c0,0-19.76,17.8-21.66,53.41
		c-0.83,15.56-6.4,14.23-6.01,42.84s7.31,27.52,12.38,31.78C751.38,914.09,808.13,914.42,837.8,902.55z"/>
	<g>
		<path class="st4" d="M768.7,783.87c0,0,18.46,4.75,30.07,11.6c11.6,6.86,3.17,9.86,5.8,13.32c5.85,7.68,16.62,13.05,16.62,13.05
			l5.93,42.73c0,0,7.99-36.84-6.2-61.19C816.18,778.07,768.7,783.87,768.7,783.87z"/>
		<path class="st4" d="M733.36,804.04c0,0-8.31,7.12-9.49,20.18c0,0,10.68,5.93,14.24,4.75
			C741.67,827.78,733.36,804.04,733.36,804.04z"/>
		<path class="st5" d="M735.01,804.84c0,0-7.68,6.58-8.77,18.64c0,0,9.87,5.48,13.16,4.39S735.01,804.84,735.01,804.84z"/>
		<path class="st4" d="M757.89,912.04c0,0,85.05-0.79,90.99-15.03c5.93-14.24-30.07-18.2-30.07-18.2s-22.15,23.74-31.65,26.9
			S757.89,912.04,757.89,912.04z"/>
		<path class="st4" d="M749.98,798.11c0,0,3.16,8.7,1.58,11.08c-1.58,2.37-11.87-3.16-11.87-3.16S746.81,798.11,749.98,798.11z"/>
		<path class="st5" d="M753.14,797.71c0,0,3.16,8.7,1.58,11.08c-1.58,2.37-11.87-3.16-11.87-3.16S749.98,797.71,753.14,797.71z"/>
		<path class="st4" d="M798.92,756.22c-1.09-2.32,0.78-4.93,3.33-4.66c3.31,0.35,7.03,1.31,7.87,3.82c0.89,2.67-1.47,5.33-3.7,7.16
			c-1.66,1.35-4.16,0.76-5.07-1.18L798.92,756.22z"/>
		<path class="st4" d="M816.7,785.45c-9.76-12.01-36.55-8.64-45.89-8.97c-10.35-0.36-34.29,5.8-34.29,5.8
			S797.19,777.54,816.7,785.45z"/>
		<path class="st4" d="M732.57,834.51c0,0-0.79,7.91,3.16,7.12C739.69,840.84,742.86,837.67,732.57,834.51z"/>
		<path class="st4" d="M810.11,873.27c0,0-4.35,5.27-0.79,7.03C812.88,882.07,814.07,876.79,810.11,873.27z"/>
	</g>
	<path class="st4" d="M802.43,769.83c0.49-0.8,1.67-0.74,2.07,0.1c0.55,1.15,1.13,2.56,1.13,3.38c0,0.97-2.17,1.05-3.86,0.96
		c-0.9-0.04-1.42-1.03-0.96-1.79L802.43,769.83z"/>
</g>
<g id="grass">
	<path class="st2" d="M849.93,902.55c0,0-8.97-0.53-11.6-15.82c-2.64-15.3,5.8-23.21,7.91-27.96s6.33,22.15,6.33,31.12
		c0,0,2.64-13.19,6.33-12.66c3.69,0.53,1.58,20.04,1.58,20.04s8.44-15.82,11.6-10.55C875.25,892,856.26,906.77,849.93,902.55z"/>
	<path class="st1" d="M849.14,910.99c0,0,5.27-11.6-13.19-16.88C817.49,888.84,836.48,909.93,849.14,910.99z"/>
	<path class="st1" d="M849.14,910.99c0,0-6.59-13.28,9.23-22.68C858.37,888.31,867.6,901.89,849.14,910.99z"/>
	<path class="st1" d="M162.2,900.6c0,0-1.89-36.61-23.96-47.96c-1-0.51-2.16,0.3-1.98,1.41c1.2,7.56,5.49,30.6,14.63,42.44
		c0,0-2.85-13.17-15.36-11.22S141.87,903.77,162.2,900.6z"/>
	<path class="st1" d="M177.04,902.63c0,0,34.96-27.6,15.88-28.84S170.63,892.36,177.04,902.63z"/>
	<path class="st1" d="M174.24,902.02c0,0,20.57-15.03,34.02-11.87c13.45,3.16-6.33,6.33-6.33,6.33s23.74,0,39.56,3.96
		S188.48,903.6,174.24,902.02z"/>
	<g>
		<path class="st1" d="M321.14,901.76c0,0-5.54-14.24-15.03-18.99s-9.49,2.37-6.33,5.54c3.16,3.16,11.87,8.7,11.87,8.7
			s-2.37-3.16-15.03,3.16C283.96,906.51,321.14,901.76,321.14,901.76z"/>
		<path class="st1" d="M321.27,901.49c0,0,15.69-32.18,1.45-20.31C308.48,893.05,316.53,902.29,321.27,901.49z"/>
	</g>
	<path class="st1" d="M175.21,902.21c0,0,4.59-26.56-5.24-30.17c-9.83-3.61-10.63,13.62-3.44,22.18S175.21,902.21,175.21,902.21z"/>
	<path class="st2" d="M417.93,883.16c0,0-9.59-21.81-26.37-27.76C391.56,855.4,395.16,872.26,417.93,883.16z"/>
	<path class="st1" d="M449.58,891.47c0,0-22.95-8.09-20.57-17.41C431.38,864.74,451.16,874.59,449.58,891.47z"/>
	<path class="st2" d="M408.04,881.54c0,0,23.74-11.29,14.24-24.05C422.29,857.49,410.42,869.27,408.04,881.54z"/>
	<path class="st1" d="M449.93,887.44c0,0,2.31-17.7-7.18-24.48C433.25,856.18,445.56,881.1,449.93,887.44z"/>
	<path class="st1" d="M461.03,894.63c0,0-11.05-14.02-6.37-24.71C459.35,859.25,461.53,886.96,461.03,894.63z"/>
</g>
<g id="left_arm">
	<g>
		<path class="st32" d="M256.53,620.35c0,0-6.86,25.32-5.8,31.12c1.05,5.8,10.52,8.6,15.03,6.59c4.52-2.01,17.63-23.44,17.13-27.46
			C282.38,626.6,256.53,620.35,256.53,620.35z"/>
		<path class="st17" d="M274.36,582.44c0,0-7.02,0-10.03,9.03c-3.01,9.03-7.79,28.88-7.79,28.88l26.36,10.26
			C282.88,630.61,301.45,585.45,274.36,582.44z"/>
	</g>
	<path class="st32" d="M271.3,641.19c-5.8-4.22-12.66-6.33-20.04,5.27c-5.02,7.9-9.69,24.95-12.4,45.23
		c-1.27,9.53-4.11,16.17-1.58,18.2c3.05,2.44,10.25,0.11,14.24-8.31c7.32-15.43,14.24-20.97,16.62-27.1
		C270.51,668.35,277.1,645.41,271.3,641.19z"/>
	<g>
		<path class="st33" d="M224.66,716.96c0,0-2.7,1.77-3.42,4.57c-0.73,2.81-3.04,9.4-1.89,10.09c1.15,0.69,3.66-0.08,5.77-5.35
			C227.23,721,230.16,716.09,224.66,716.96z"/>
		<path class="st33" d="M236.33,702.14c0,0-9.85,7.84-10.28,13.9c-0.32,4.48-0.84,16.39,2.54,13.12c1.34-1.3,1.43-7.49,2.06-8.67
			c0.95-1.79,3.9-11.19,3.9-11.19s1.26,1.94-0.22,8.53c-0.71,3.17,0.69,4.44,2.71,1.97C241.08,714.87,246,702.11,236.33,702.14z"/>
		<path class="st32" d="M253.87,705.19c0,0-12.31,9.54-21.15,11.08l-5.35,5.17c0,0-1.98,8.51-3.88,10.08
			c-1.29,1.06-2.37,0.25-2.42-1.01c-0.04-0.82,0.24-3.45,0.17-4.79s0.23-4.25,1.1-6.01c0,0-2.79,10.02-4.14,11.66
			s-4.26,0.31-4.02-1.35c0.12-0.86,1.64-8.24,1.64-8.24s3.19-6.09,4.26-7.87c5.65-9.35,17.76-17.03,24.61-15.94
			S257.43,693.22,253.87,705.19z"/>
	</g>
</g>
<g id="skirt">
	<path class="st12" d="M220.26,748.66c0,0,32.72,14.93,46.11,14.93c13.39,0,114.64-1.68,109.36-4.25
		c-5.27-2.57-17.83-32.39-102.06-31.04C255.06,728.6,220.26,748.66,220.26,748.66z"/>
</g>
<g id="legs">
	<g>
		<path class="st33" d="M251.24,958.27c0,0,28.63,6.67,36.88,4.78c6.66-1.52,13.46-5.03,8.72-7.1c-4.86-2.13-10.51-1.15-27.13-7.27
			C262.7,946.09,257.89,948.47,251.24,958.27z"/>
		<path class="st33" d="M290.63,847.35c0,0-18.85,100.14-21.62,111.64c-2.77,11.5-11.43,11.08-14.76,8.37
			c-3.33-2.71-4.43-17.76-3.12-29.18c3.98-34.49-0.69-92.52,4.85-102C261.53,826.71,283.98,822.99,290.63,847.35z"/>
		<path class="st32" d="M285.54,847.16c0,0-20.96,95.57-23.74,107.08c-2.77,11.5-5.12,11.59-8.97,10.29
			c-7.48-2.54-3.47-16.98-2.94-33.28c1.11-34.51,1.11-89.65,6.65-99.12C262.08,822.65,278.89,822.81,285.54,847.16z"/>
		<path class="st34" d="M262.02,753.3c0,0,1.13,25.71,1.13,36.54c0,10.83,3.94,29.09,18,29.09s16.88,8.12,23.07-27.74
			c5.03-29.13,8.86-68.84-5.2-68.17C284.95,723.7,258.08,712.71,262.02,753.3z"/>
		<path class="st35" d="M262.02,753.3c0,0,1.13,25.71,1.13,36.54c0,10.83,5.06,26.39,14.06,27.06c9,0.68,15.31,8.06,20.25-28.08
			c3.66-26.73,4.78-65.24-9.29-64.56S258.08,712.71,262.02,753.3z"/>
		<path class="st34" d="M275.98,781.72c-3.21,1.69-13.9,15.5-17.5,29.43c-3.87,14.96-4.67,20.97-5.54,37.21
			c0,0,19.98-0.68,37.49,7.1c0,0,15.32-44.99,7.15-61.91C289.4,776.65,279.19,780.03,275.98,781.72z"/>
		<path class="st35" d="M275.98,781.72c-3.21,1.69-13.9,15.5-17.5,29.43c-3.87,14.96-5.83,20.97-6.71,37.21
			c0,0,17.56,0.76,32.81,5.02c0.84,0.23,4.46-30.39,12.41-63.54C293.36,770.91,279.19,780.03,275.98,781.72z"/>
		<path class="st17" d="M251.25,949.1c4.09,0,8.74,0.93,11.74,2.24c4.61,2.02,12.13,3.69,16.22,2.9c4.09-0.79,1.85-2.11,1.85-2.11
			s17.72,2.3,26.14,4.86c4.07,1.24,2.06,5.54-6.89,9.64c-17.18,7.88-19.53,3.01-30.09,6.31c-2.67,0.84-6.27,2.93-10.92,2.93
			c-4.64,0-12.4-1.85-12.4-1.85s-2.11-1.55-1.54-13.09C245.85,951.21,247.16,949.1,251.25,949.1z"/>
	</g>
	<path class="st33" d="M373.52,851.02c0,0-0.77,80.43-0.15,95.39c0.61,14.96,0.31,30.1-9.49,30.1c-9.79,0-10.82,2.45-15.61-25
		c-7.96-45.57-20.05-95.73-15.15-109.33C338.01,828.57,372.91,821.09,373.52,851.02z"/>
	<path class="st32" d="M365.45,866.15c-1.58,137.67-12.39,112.8-17.18,85.36c-7.96-45.57-20.05-95.73-15.15-109.33
		C338.01,828.57,366.13,806.73,365.45,866.15z"/>
	<path class="st34" d="M366.53,727.67c0,0,2.39,57.49,0.41,70.25c-1.97,12.76-34.52,30.68-40.11,5.81s-12.1-44.29-15.66-63.53
		C307.62,720.97,348.8,697.75,366.53,727.67z"/>
	<path class="st35" d="M354.56,725.67l1.66,30.77l5.97,36.13l-0.61,10c0,0-11.15,10.59-26.63,11.48
		c-10.35,0.59-13.22-33.33-13.22-33.33c-5.58-24.88-6.99-21.28-10.55-40.52C307.62,720.97,336.83,695.75,354.56,725.67z"/>
	<path class="st34" d="M330.2,803.18c0,0-4.52,2.45-3.92,23.87c0.49,17.31,4.82,32.14,4.82,32.14s2.71-2.14,16.88-2.45
		c14.17-0.31,25.63-0.92,25.63-0.92c0-2.6-1.21-40.1-6.03-53.57S340.45,790.33,330.2,803.18z"/>
	<path class="st35" d="M330.2,803.18c0,0-4.52,2.45-3.92,23.87c0.49,17.31,4.82,32.14,4.82,32.14s3.63-1.46,17.79-2.14
		c14.43-0.69,17.94-0.79,17.94-0.79l-0.2-5.74c0,0-2.77-53.45-4.45-54.84C354.9,789.66,338.53,792.74,330.2,803.18z"/>
	<path class="st33" d="M351.02,963.41c-3.06,3.4-1.79,12.17-0.11,17.27c1.68,5.1,10.99,3.95,18.79,2.67
		c7.9-1.29,19.26-1.87,31.15-5.84c10.71-3.57,0.13-9.69-8.01-10.88C378.83,964.59,354.08,960.01,351.02,963.41z"/>
	<path class="st17" d="M364.4,960.04c-4.22-1.85-14.13-2.63-15.56,1.19c-2.37,6.33,0,21.92,1.19,23.51
		c1.19,1.58,12.26,2.37,20.37,1.38c5.36-0.65,3.26-2.97,7.81-3.16c4.55-0.2,4.02,1.79,18.63,0.1c13.65-1.58,22.42-6.66,20.84-10.09
		c-1.58-3.43-26.9-6.92-26.9-6.92s-3.02,0.92-6.59,0.79C371.78,966.37,368.62,961.89,364.4,960.04z"/>
</g>
<g id="torso">
	<g>
		<path class="st14" d="M270.02,594.04c-0.41-9.73,4.33-16.63,22.71-16.63c18.39,0,24.61-7.84,34.88,4.6
			c10.28,12.44,12.98,12.44,12.98,23.8s-1.24,44.57-2.32,46.2c-1.08,1.62,27.18,40.56,34.61,89.24c2.64,17.27,2.7,18.39,2.7,18.39
			s-20.83-12.55-51.69-18.48c-30.86-5.93-40.52,3.34-59.45,9.83c-21.65-15.76-43.8-2.71-43.8-2.71s40.3-70.99,58.55-90.46
			C279.21,657.8,270.46,604.53,270.02,594.04z"/>
		<path class="st13" d="M268.13,592.66c2.04-9.53,6.81-15.92,24.79-19.78c18.65-4.01,24.42-3.31,34.7,9.13
			c10.28,12.44-0.94,13.27-0.94,24.63c0,11.36-7.77,50.27-7.91,52.22c-0.27,3.79,27.09,64.53,27.09,64.53l29.88,35.95
			c0,0-35.77-13.95-53.8-7.12c-18.03,6.83-36.11,15.85-58.01-0.98c-21.9-16.82-43.26-2.19-43.26-2.19s49.05-95.74,58.55-104.44
			C279.21,644.62,263.21,615.67,268.13,592.66z"/>
	</g>
</g>
<g id="right_arm">
	<g>
		<path class="st33" d="M321.91,620.75c0,0,9.78,16.68,18.49,29.14c5.06,7.23,16.66,0.57,16.85-9.22
			c0.11-5.92-11.3-36.96-11.3-36.96S322.99,612.44,321.91,620.75z"/>
		<path class="st32" d="M321.91,620.75c0,0,9.78,16.68,18.49,29.14c5.06,7.23,12.8,0.56,12.99-9.23c0.05-2.74-4.25-15.56-6.13-23.34
			c-1.1-4.53-1.88-7.81,0.71-8.01c-1.2-3.37-2.01-5.6-2.01-5.6S322.99,612.44,321.91,620.75z"/>
		<path class="st12" d="M321.7,622.53c0,0-8.74-17.81-11.19-30.4c-1.74-8.93,3.93-16.97,11.2-17.33c5.05-0.25,11.29,4.57,14.57,9.74
			c7.32,11.52,10.6,20.38,10.6,20.38S331.54,623.32,321.7,622.53z"/>
		<path class="st17" d="M321.7,622.53c0,0-8.74-17.81-11.19-30.4c-2.94-15.14,14.7-24.14,16.9-9.38c1.17,7.79,2.17,8.46,2.17,8.46
			l8.37,15.27l8.93-1.56C346.88,604.92,331.54,623.32,321.7,622.53z"/>
	</g>
	<path class="st33" d="M382.2,705.67c0,0-7.12-26.9-13.85-45.1s-9.89-22.95-16.22-24.92c-3.28-1.02-6.86-0.37-9.43,1.95
		c-2.39,2.15-3.95,5.65-2.04,13.09c3.96,15.43,23.8,54.26,32.11,60.2C381.08,716.81,382.2,705.67,382.2,705.67z"/>
	<path class="st32" d="M382.2,705.67c0,0-7.45-11.8-14.18-30c-6.73-18.2-15.89-40.02-15.89-40.02c-6.33-1.98-15.43-0.4-11.47,15.03
		c3.96,15.43,23.8,54.26,32.11,60.2C381.08,716.81,382.2,705.67,382.2,705.67z"/>
	<path class="st33" d="M370.89,703.66c0,0-2.37,3.56-0.59,7.32c1.78,3.76,8.51,10.29,9.3,12.26c0.79,1.98,4.15,6.92,6.33,10.09
		c2.18,3.16,2.57,5.34,3.96,5.14s1.58-2.57,1.58-2.57s2.57,4.35,3.36,4.95c0.79,0.59,3.76,0.4,3.36-3.16
		c-0.4-3.56-2.77-14.04-5.34-18.4c0,0,5.93,11.47,6.92,13.85c0.99,2.37,1.78,8.11,3.56,8.7c1.78,0.59,2.77-1.19,3.16-3.76
		c0.22-1.41-2.37-13.25-5.34-17.01c-0.55-0.7,2.42,0.89,2.87,1.98c0.45,1.09,2.57,8.06,2.57,8.06s0.3,1.43,1.68,1.43
		s0.99-5.93,0.4-10.88c-0.59-4.95-8.31-10.88-15.82-15.82C385.33,700.89,375.04,698.91,370.89,703.66z"/>
	<path class="st32" d="M370.89,703.66c0,0-2.37,3.56-0.59,7.32c1.78,3.76,8.51,10.29,9.3,12.26c0.79,1.98,4.15,6.92,6.33,10.09
		c2.18,3.16,2.57,5.34,3.96,5.14s1.58-2.57,1.58-2.57s2.57,4.35,3.36,4.95c0.79,0.59,3.76,0.4,3.36-3.16
		c-0.4-3.56-2.77-14.04-5.34-18.4c0,0,5.93,11.47,6.92,13.85c0.99,2.37,1.78,8.11,3.56,8.7c1.78,0.59-6.03-26.6-10.58-30.76
		c-4.55-4.15-10.16-9.34-13.04-9.95C376.2,700.38,373.17,701.05,370.89,703.66z"/>
</g>
<g id="head">
	<g>
		<path class="st18" d="M263.6,506.44c0,0,8.81,4.32,15.97,4.63c5.42,0.24,9.13-0.95,9.13-0.95l-1.68-1.36l1.42-2.69
			c0,0-8.62,2.88-23.6-1.44L263.6,506.44z"/>
		<path class="st18" d="M262.66,505.89c0,0,6.8,7.07,13.42,9.82c5.01,2.08,8.91,2.23,8.91,2.23l-1.11-1.86l2.26-2.04
			c0,0-9.08-0.25-21.68-9.44L262.66,505.89z"/>
		<path class="st17" d="M268.29,508.71c1.93-1.32-1.16-13.43-6.26-11.4c-4.8,1.91-9.86,4.94-7.37,8.08
			C257.16,508.53,266.36,510.03,268.29,508.71z"/>
		<path class="st14" d="M267.21,501.51c0,0-2.95-4.45-4.4-3.67c-1.44,0.78,0.82,2.23,2.65,5.22
			C267.28,506.05,268.4,503.42,267.21,501.51z"/>
		<g>
			<path class="st17" d="M265.5,507.17c0,0-1.32-2.07,0.93-5.67c2.25-3.6,4.17-5.88,6.8-5.54c2.63,0.34,5.87,5.61,5.98,8.95
				c0.11,3.35-8.03,4.46-10.32,4.22C266.6,508.9,265.5,507.17,265.5,507.17z"/>
			<path class="st14" d="M276.37,499.98c0,0,2.71,4.18,1.04,5.82c-2.48,2.44-4.46-6.9-4.9-8.32S275.45,496.52,276.37,499.98z"/>
		</g>
	</g>
	<g>
		<path class="st33" d="M297.74,508.72c0,0,17.1-13.01,28.6,12.48c11.42,25.31,1.29,43.89-20.83,43.27
			C283.38,563.86,284.05,514.91,297.74,508.72z"/>
		<path class="st32" d="M295.17,511.84c0,0,17.1-13.01,28.6,12.48c11.42,25.31,1.29,43.89-20.83,43.27
			C280.82,566.98,281.48,518.03,295.17,511.84z"/>
		<path class="st14" d="M313.55,531.15c0,0,5.73-23.19-1.51-25.79l-14.64-2.1C297.41,503.26,312.94,516.67,313.55,531.15z"/>
		<path class="st4" d="M303.45,513.46c0,0,8.92-4.78,8.52-16.36c-0.39-11.58-4.05-11.81-7.82-10.2c-3.77,1.6-5.43,7.74-5.43,7.74
			s2.18-8.67-5.28-9.68C285.99,483.95,285.62,514.02,303.45,513.46z"/>
		<path class="st4" d="M304.5,502.39c-8.72-5.11-35-3.4-45.27,5.12c-10.27,8.52-11.56,26.37-5.88,32.43c0,0-7.55,2.08-7,12.87
			c0.54,10.79,5.88,9.37,5.88,9.37s-1.3,11.27,9.02,14.49c23.52,7.35,54.64,0.44,62.8-9.07c10.26-11.96,3.33-28.51-11.71-31.69
			C312.33,535.91,313.22,507.5,304.5,502.39z"/>
		<path class="st34" d="M301.9,514.17c0,0,9.07-4.69,8.5-16.37s-4.33-11.97-8.17-10.41s-5.45,7.73-5.45,7.73s4.08-8.93-3.59-10.06
			C285.52,483.93,283.62,514.47,301.9,514.17z"/>
		<path class="st34" d="M302.76,504.09c-8.28-5.11-33-5.38-42.75,3.13c-9.75,8.52-10.97,26.36-5.58,32.43c0,0-10.25,0.54-9.73,11.33
			s7.21,11.22,7.21,11.22s-1.23,11.27,8.57,14.5c22.35,7.36,48.01,1.23,55.76-8.27c9.74-11.96,2.85-24.53-11.44-27.72
			C304.79,540.7,311.04,509.2,302.76,504.09z"/>
		<path class="st32" d="M320.21,531.74c0,0-4.06-9.74-10.06-7.55c-3.61,1.32-2.98,6.44,0.33,11.12
			C313.8,539.98,323.57,543.46,320.21,531.74z"/>
	</g>
	
		<ellipse transform="matrix(0.8971 -0.4419 0.4419 0.8971 -196.3389 196.4487)" class="st3" cx="323.5" cy="519.66" rx="1.28" ry="2.95"/>
	<path class="st36" d="M319.17,511.51c0,0-1.76,0.48-1.63,2.36"/>
</g>
</svg>
